<?xml version="1.0" ?><svg id="Icons" viewBox="0 0 60 60" xmlns="http://www.w3.org/2000/svg"><defs><style>.cls-1{fill:#439af6;}.cls-2{fill:#50efdb;}.cls-3{fill:#34d6c6;}.cls-4{fill:#262626;}</style></defs><path class="cls-1" d="M13.778,53.471a.5.5,0,0,1-.259-.928l7.2-4.377L11.649,53.4a.5.5,0,0,1-.513-.857l20.5-12.71L8.136,53.4a.5.5,0,0,1-.514-.857L32.854,36.851,4.185,53.4a.5.5,0,0,1-.513-.858L29.64,36.521,1.745,52.626a.5.5,0,0,1-.513-.858L29.88,34.078,1.28,50.59a.5.5,0,0,1-.509-.861L19.779,38.18,1.28,48.859A.5.5,0,0,1,.769,48L24.553,33.368,1.28,46.805a.5.5,0,0,1-.513-.858L24.715,31.079,1.28,44.608a.5.5,0,0,1-.509-.86l4.257-2.569L1.279,43.343a.5.5,0,0,1-.51-.86L12.917,35.05,1.279,41.769a.5.5,0,0,1-.516-.856L20.4,28.556,1.279,39.592a.5.5,0,0,1-.51-.86l6.014-3.68-5.5,3.177a.5.5,0,0,1-.514-.856L12.71,29.914l-11.431,6.6a.5.5,0,0,1-.518-.855l13.5-8.586L1.279,34.563a.5.5,0,0,1-.515-.856l7.771-4.883L1.279,33.013a.5.5,0,0,1-.517-.855l7.5-4.758-6.98,4.03a.5.5,0,0,1-.52-.854l7.664-4.942L1.279,29.758a.5.5,0,0,1-.526-.849l8.3-5.519L1.279,27.879a.5.5,0,0,1-.522-.852l2.9-1.877L1.279,26.52a.5.5,0,0,1-.523-.852l1.539-1-1.016.586A.5.5,0,0,1,.752,24.4l1.917-1.281-1.39.8a.5.5,0,0,1-.553-.83L5.65,19.328,1.279,21.852a.5.5,0,0,1-.568-.819L3.82,18.469,1.279,19.936A.5.5,0,0,1,.7,19.125L1.89,18.1l-.611.353a.5.5,0,0,1-.67-.705l.824-1.275a.5.5,0,0,1-.36-.921L2.7,14.61a.5.5,0,0,1,.67.705l-.8,1.233L5.953,14.6a.5.5,0,0,1,.577.811L5.342,16.436,8.526,14.6a.5.5,0,0,1,.569.819L5.984,17.98,11.845,14.6a.5.5,0,0,1,.553.83L7.474,19.192l7.96-4.6a.5.5,0,0,1,.527.849l-1.918,1.281,3.689-2.13a.5.5,0,0,1,.524.852l-1.547,1.009L19.932,14.6a.5.5,0,0,1,.522.852l-2.889,1.872,4.72-2.724a.5.5,0,0,1,.527.849l-8.3,5.52L25.54,14.6a.5.5,0,0,1,.521.853L18.4,20.388,28.435,14.6a.5.5,0,0,1,.517.856l-7.5,4.76L31.178,14.6a.5.5,0,0,1,.515.857l-7.775,4.886L33.864,14.6a.5.5,0,0,1,.519.855L20.889,24.037,37.24,14.6a.5.5,0,0,1,.515.858L25.81,22.913l14.4-8.317a.5.5,0,0,1,.511.86l-6.012,3.678,7.86-4.538a.5.5,0,0,1,.517.857L23.451,27.813,46.345,14.6a.5.5,0,0,1,.51.86L34.72,22.881,49.07,14.6a.5.5,0,0,1,.509.862l-4.262,2.571L51.264,14.6a.5.5,0,0,1,.513.858L27.837,30.317,55.067,14.6a.5.5,0,0,1,.512.859L31.8,30.087,57.9,15.018a.5.5,0,0,1,.509.86l-19,11.548L58.65,16.312a.5.5,0,0,1,.513.858L30.513,34.862,58.72,18.577a.5.5,0,0,1,.512.858L33.255,35.466l25.465-14.7a.5.5,0,0,1,.513.858L34,37.317,58.721,23.044a.5.5,0,0,1,.513.858l-20.5,12.711,19.99-11.54a.5.5,0,0,1,.509.86l-7.2,4.379,6.7-3.866a.5.5,0,0,1,.511.859L46.874,34.916l11.847-6.84a.5.5,0,0,1,.517.856l-17.97,11.38L58.721,30.234a.5.5,0,0,1,.511.86l-5.478,3.368L58.721,31.6a.5.5,0,0,1,.52.853L44.173,42.142l14.548-8.4a.5.5,0,0,1,.519.854L48.546,41.431l10.175-5.874a.5.5,0,0,1,.519.853l-7.794,4.979,7.275-4.2a.5.5,0,0,1,.522.852l-7.595,4.932,7.073-4.083a.5.5,0,0,1,.524.85l-6.276,4.124,5.752-3.321a.5.5,0,0,1,.532.846L52.6,45.934,58.721,42.4a.5.5,0,0,1,.53.847l-3.38,2.287,2.85-1.644a.5.5,0,0,1,.529.846l-.973.658.444-.256a.5.5,0,0,1,.569.817l-4.371,3.623,3.8-2.194a.5.5,0,0,1,.561.823l-1.254,1,.693-.4a.5.5,0,0,1,.573.813l-.366.312a.523.523,0,0,1,.418.167.5.5,0,0,1,.023.632l-.6.8a.5.5,0,0,1,.158.924l-1.614.932a.5.5,0,0,1-.649-.735l.417-.55-2.253,1.3a.5.5,0,0,1-.573-.813l.167-.143-1.656.956a.5.5,0,0,1-.562-.823l1.255-1L50.292,53.4a.5.5,0,0,1-.569-.817l4.37-3.622L46.4,53.4a.5.5,0,0,1-.529-.846l.962-.65-2.594,1.5a.5.5,0,0,1-.53-.846l3.383-2.29L41.661,53.4a.5.5,0,0,1-.532-.845l6.652-4.544L38.446,53.4a.5.5,0,0,1-.524-.85L44.2,48.427,35.582,53.4a.5.5,0,0,1-.522-.851l7.6-4.938L32.636,53.4a.5.5,0,0,1-.52-.853L39.9,47.575,29.809,53.4a.5.5,0,0,1-.52-.853l10.7-6.84L26.666,53.4a.5.5,0,0,1-.52-.853l15.065-9.692L22.945,53.4a.5.5,0,0,1-.511-.858l5.479-3.369L20.59,53.4a.5.5,0,0,1-.518-.855L38.044,41.169,16.852,53.4a.5.5,0,0,1-.512-.858L28.7,44.934,14.028,53.4A.5.5,0,0,1,13.778,53.471Z"/><path class="cls-2" d="M21.564,26.377a.5.5,0,0,1-.375-.831l1.379-1.561-2.214,1.279a.5.5,0,0,1-.572-.816l.483-.405-.608.351a.5.5,0,0,1-.58-.808l1.794-1.58-2.023,1.168a.5.5,0,0,1-.562-.824l1.162-.928-1.222.706a.5.5,0,0,1-.565-.821L19.7,19.658l-1.947,1.124a.5.5,0,0,1-.55-.833l.488-.366-.209.12a.5.5,0,0,1-.633-.754L18.6,16.862l-1.315.76a.5.5,0,0,1-.737-.547l.3-1.293a.491.491,0,0,1-.246-.214.5.5,0,0,1,.182-.683l.5-.29a.5.5,0,0,1,.738.546l-.243,1.038,2.765-1.6a.5.5,0,0,1,.634.753l-1.748,2.088,4.946-2.856a.5.5,0,0,1,.55.833l-.488.367.283-.164a.5.5,0,0,1,.564.822l-2.036,1.648,1.472-.85a.5.5,0,0,1,.561.823l-1.166.931.606-.35a.5.5,0,0,1,.58.809l-1.792,1.579,1.212-.7a.5.5,0,0,1,.571.817l-.507.425a.5.5,0,0,1,.561.8l-1.379,1.561.541-.312a.5.5,0,0,1,.5.866l-3.194,1.844A.508.508,0,0,1,21.564,26.377Z"/><path class="cls-2" d="M50.367,47.471a.5.5,0,0,1-.349-.858l1.216-1.19-2.745,1.584a.5.5,0,0,1-.62-.77l1.975-2.168-2.453,1.416a.5.5,0,0,1-.655-.726l.842-1.159a.5.5,0,0,1-.311-.929l1.792-1.035a.5.5,0,0,1,.654.726l-.785,1.081,3.2-1.846a.5.5,0,0,1,.62.769l-1.976,2.169,3.4-1.96a.5.5,0,0,1,.6.79l-1.216,1.19,1.135-.656a.5.5,0,0,1,.629.759l-.666.773a.486.486,0,0,1,.263.219.5.5,0,0,1-.183.683l-1.783,1.029a.5.5,0,0,1-.629-.758l.313-.363L50.617,47.4A.49.49,0,0,1,50.367,47.471Z"/><path class="cls-2" d="M18.564,49.451a.5.5,0,0,1-.406-.791l.571-.8L17.5,48.57a.5.5,0,0,1-.59-.8l.5-.466-.081.047a.5.5,0,0,1-.583-.806l.811-.723-.13.075a.5.5,0,0,1-.607-.783l2.144-2.178-1.684.971a.5.5,0,0,1-.583-.8l1.095-.976-1.422.82a.5.5,0,0,1-.608-.781l1.75-1.8L15.4,41.586a.5.5,0,0,1-.66-.719l.894-1.278a.5.5,0,0,1-.37-.918l1.792-1.034a.5.5,0,0,1,.66.718L16.85,39.6,20.131,37.7a.5.5,0,0,1,.608.781l-1.751,1.8,2.53-1.46a.5.5,0,0,1,.583.806l-1.093.974.649-.375a.5.5,0,0,1,.607.784l-2.145,2.179,1.17-.674a.5.5,0,0,1,.583.8l-.937.836a.5.5,0,0,1,.413.861l-.814.755a.492.492,0,0,1,.32.162.5.5,0,0,1,.037.626l-.787,1.1a.488.488,0,0,1,.3.231.5.5,0,0,1-.182.682l-1.4.81A.489.489,0,0,1,18.564,49.451Z"/><path class="cls-2" d="M44.728,36.471a.5.5,0,0,1-.25-.933l3.209-1.853a.5.5,0,1,1,.5.865L44.978,36.4A.5.5,0,0,1,44.728,36.471Z"/><path class="cls-2" d="M49.923,32.49a.5.5,0,0,1-.25-.932l1.792-1.036a.5.5,0,0,1,.5.867l-1.792,1.034A.494.494,0,0,1,49.923,32.49Z"/><path class="cls-2" d="M53.923,27.49a.5.5,0,0,1-.25-.933l5.056-2.919a.5.5,0,0,1,.666.711l-.747,1.116.093-.053a.5.5,0,0,1,.5.866L57.292,27.4a.5.5,0,0,1-.666-.711l.746-1.116-3.2,1.847A.494.494,0,0,1,53.923,27.49Z"/><path class="cls-2" d="M40.569,38.653a.5.5,0,0,1-.3-.9l4.722-3.54L40.3,36.923a.5.5,0,0,1-.529-.848l6.988-4.709-8.73,5.039a.5.5,0,0,1-.536-.842l9.015-6.292L34.856,36a.5.5,0,0,1-.522-.851L37.8,32.889,33.964,35.1a.5.5,0,0,1-.527-.848l4.549-3.027-5.007,2.89a.5.5,0,0,1-.53-.847l5.079-3.428-5.535,3.2a.5.5,0,0,1-.53-.847L36.7,28.652l-5.578,3.22a.5.5,0,0,1-.541-.839l7.823-5.6-8.454,4.882a.5.5,0,0,1-.528-.849l3.254-2.177L29.363,29.2a.5.5,0,0,1-.649-.733l.693-.924a.5.5,0,0,1-.22-.932l1.712-.988a.5.5,0,0,1,.65.733l-.567.754L45.3,18.838a.5.5,0,0,1,.528.849l-3.254,2.176,4.159-2.4a.5.5,0,0,1,.541.839l-7.826,5.607,8.871-5.122a.5.5,0,0,1,.531.847L43.623,25.17,49.4,21.835a.5.5,0,0,1,.53.848l-5.085,3.431L51.109,22.5a.5.5,0,0,1,.528.85l-4.55,3.027,6.556-3.785a.5.5,0,0,1,.522.852L50.7,25.7l5.4-3.117a.5.5,0,0,1,.536.843l-9.017,6.293L58.726,23.3a.5.5,0,0,1,.529.848l-7.366,4.965a.5.5,0,0,1,.382.893L44.2,36.059a.5.5,0,0,1-.183.681l-3.2,1.846A.491.491,0,0,1,40.569,38.653Z"/><path class="cls-2" d="M38.346,22.147a.5.5,0,0,1-.25-.933l4.145-2.393a.5.5,0,0,1,.5.866L38.6,22.081A.5.5,0,0,1,38.346,22.147Z"/><path class="cls-2" d="M13.982,34.507a.5.5,0,0,1-.25-.933l2.292-1.323a.5.5,0,1,1,.5.865l-2.292,1.323A.5.5,0,0,1,13.982,34.507Z"/><path class="cls-2" d="M10.8,38.935a.5.5,0,0,1-.433-.751l.223-.383-.739.426a.5.5,0,0,1-.562-.824l2.674-2.139-3.2,1.847a.5.5,0,0,1-.561-.824l4.1-3.244-4.4,2.54a.5.5,0,0,1-.537-.842l.291-.2-.11.064a.5.5,0,0,1-.574-.814L8.7,32.316l-1.344.776a.5.5,0,0,1-.57-.818l.388-.321a.5.5,0,0,1-.494-.834L8.2,29.591l-.976.564a.5.5,0,0,1-.579-.809l.488-.427-.228.131a.5.5,0,0,1-.608-.781l2.369-2.435L5.478,27.675a.5.5,0,0,1-.6-.794l2.266-2.176-4.7,2.716a.5.5,0,0,1-.588-.8L3.929,24.7,1.28,26.233a.5.5,0,0,1-.618-.771l1.257-1.369-.639.368a.5.5,0,0,1-.735-.554l.283-1.131a.484.484,0,0,1-.23-.207.5.5,0,0,1,.182-.683l.5-.289a.5.5,0,0,1,.736.554l-.214.854L4.241,21.6a.5.5,0,0,1,.618.771L3.6,23.737,7.311,21.6a.5.5,0,0,1,.588.8L5.823,24.314l4.391-2.534a.5.5,0,0,1,.6.794L8.545,24.75l2.746-1.586a.5.5,0,0,1,.608.781L9.53,26.379l1.535-.886a.5.5,0,0,1,.58.81l-.554.484a.5.5,0,0,1,.486.835L10.053,29.15l1.668-.963a.5.5,0,0,1,.569.818l-.324.268.975-.563a.5.5,0,0,1,.575.814L11.788,31l5.293-3.056a.5.5,0,0,1,.537.843l-.287.2.378-.218a.5.5,0,0,1,.561.825l-4.1,3.245,3-1.731a.5.5,0,0,1,.562.824L12.41,36.189a.5.5,0,0,1-.007.491l-.384.661a.5.5,0,0,1,.1.91l-1.067.616A.49.49,0,0,1,10.8,38.935Z"/><path class="cls-3" d="M31.917,45.442a.5.5,0,0,1-.385-.818l1.28-1.547-1.532.884a.5.5,0,0,1-.626-.762l1.952-2.231-1.327.765a.5.5,0,0,1-.591-.8l.728-.679-.158.091a.5.5,0,0,1-.593-.8l.843-.794-1.163.671a.5.5,0,0,1-.581-.808l.923-.816L28.276,39.2a.5.5,0,0,1-.593-.8l2.433-2.3L26.81,38.009a.5.5,0,0,1-.605-.785l1.87-1.879-1.743,1.006a.5.5,0,0,1-.621-.768l.809-.9a.5.5,0,0,1-.076-.9l1.921-1.109a.5.5,0,0,1,.621.767l-.413.459,2.261-1.3a.5.5,0,0,1,.6.785l-1.871,1.881L33.31,33.1a.5.5,0,0,1,.593.8l-2.432,2.3,3.023-1.745a.5.5,0,0,1,.581.808l-.925.817.57-.328a.5.5,0,0,1,.592.8l-.84.792.248-.143a.5.5,0,0,1,.591.8l-.73.681.14-.08a.5.5,0,0,1,.626.761L33.4,41.586l1.326-.766a.5.5,0,0,1,.634.751l-1.279,1.547.237-.137a.5.5,0,0,1,.5.866l-2.646,1.528A.489.489,0,0,1,31.917,45.442Z"/><path class="cls-4" d="M55.262,14.528H43.556a9.823,9.823,0,0,0-3.074-5.856,8.058,8.058,0,0,0-4.62-2.118c-.935-.09-1.9-.028-2.836-.028-2.508,0-5.154-.26-7.512.763a8.871,8.871,0,0,0-4.154,3.7,8.438,8.438,0,0,0-1.026,3.534c-5.6,0-11.212-.065-16.815,0A3.067,3.067,0,0,0,.4,16.378a6.758,6.758,0,0,0-.124,2.088V50.483c0,1.218.3,2.364,1.6,2.83a4.858,4.858,0,0,0,1.677.159H56.735a.534.534,0,0,0,.053-.009.908.908,0,0,0,.131.006c3.309-.267,2.81-3.4,2.81-5.764V23.352c0-2.126.12-4.291,0-6.414C59.583,14.331,57.139,14.528,55.262,14.528Zm-4,15.522c-.125,1.4-1.126,1.219-2.13,1.57a2.847,2.847,0,0,0-1.445,1.105,4.181,4.181,0,0,0-.419,1.481l-.595-.476c-.362-.29-1.687.272-1.352.54l1.258,1.007c-.842.466-2.109-.074-2.987.46a8.483,8.483,0,0,0-1.9,2.291c-.336.449-.316.39-.446-.115a13.117,13.117,0,0,0-.337-1.35c-.465-1.233-1.643-1.114-2.73-1.114h-2.5a3.17,3.17,0,0,0-3-2.706l-1.8-2.4c-.765-1.02-1.661-2.161-.8-3.458.531-.807,1.492-.624,2.322-.9a5.3,5.3,0,0,0,1.3-.656c.738-.5,1.453-1.037,2.178-1.555,1.732-1.238,3.432-2.549,5.209-3.722a4.778,4.778,0,0,1,1.191-.571v3.591c0,.69,1.46.428,1.46-.142V19.282A6.68,6.68,0,0,1,48.2,21.739a4.546,4.546,0,0,0,3.545,1.532c2.176.032,4.354,0,6.531,0v3.169c-1.4-.019-2.818-.071-4.212.008a2.829,2.829,0,0,0-2.794,2.6C51.242,29.381,51.294,29.719,51.265,30.05ZM33.956,43.508c-.288.559-1.06,1.526-1.783,1.1a1.124,1.124,0,0,1-.449-1.1V40.593c0-.26.018-.526,0-.785a1.182,1.182,0,0,0-1.26-1.088,7.389,7.389,0,0,1-1.426-.073A3.061,3.061,0,0,1,27.147,37.3a2.845,2.845,0,0,1-.37-1.03h.747A2.015,2.015,0,0,0,28.549,36c.214-.137.219-.273-.073-.273H26.743a2.778,2.778,0,0,1,.139-.847c.243-.7.853-1.568,1.659-1.6.944-.037,1.9-.006,2.843,0a2.912,2.912,0,0,1,2.892,2.914v4.972A4.9,4.9,0,0,1,33.956,43.508Zm22.1-28.036c.936,0,1.873.112,2.159,1.244a7.8,7.8,0,0,1,.06,1.858v4.162c-1.844.011-3.691.036-5.533-.007a4.158,4.158,0,0,1-2.163-.568c-.9-.56-1.427-1.542-2.271-2.181a6.555,6.555,0,0,0-4.574-1.21V16.714c0-.418-.022-.832-.058-1.242ZM25.732,8.21c2.054-1.038,4.534-.736,6.764-.736.744,0,1.49-.014,2.234,0a6.883,6.883,0,0,1,4.637,2.01,9.249,9.249,0,0,1,2.679,5.044H21.807C22.077,11.9,23.162,9.51,25.732,8.21Zm-4,7.719c0-.154.014-.3.018-.457h2.528v7.284a3.706,3.706,0,0,1-.27,1.628,2.685,2.685,0,0,1-1.054,1.2,1.43,1.43,0,0,1-1.584-.291,10.65,10.65,0,0,1-1.344-1.614,10.509,10.509,0,0,1-1.705-2.986c-.026-.072-.044-.145-.068-.217h.485a1.041,1.041,0,0,0,.949-.423c.146-.3-.127-.531-.421-.531H18a19.083,19.083,0,0,1-.273-4.051h2.557c0,.2-.009.4-.009.6C20.27,16.761,21.73,16.5,21.73,15.929ZM5,15.472H16.274a23.466,23.466,0,0,0,.189,4.051H14.2c-1.985,0-4.336-.322-5.764,1.393a3.378,3.378,0,0,0-.33.52c-.832.016-1.667.065-2.465.065H1.671c.009-1.454.024-2.908.058-4.36C1.78,15.044,3.536,15.472,5,15.472Zm5.876,12.971a2.86,2.86,0,0,0,2.873,1.166,3.305,3.305,0,0,0,1.495-.641c.462-.357.592-1.027,1.183-.565a1.9,1.9,0,0,1,.55,2.829c-.465.533-1.012,1.012-1.512,1.513-.146.145-.286.31-.444.443-.517.434-1.27.291-1.883.525a2.8,2.8,0,0,0-1.87,2.484c-.017.362,0,.727,0,1.089a2.036,2.036,0,0,1,0,.322c-.068.411-.031.441-.361.315a5.026,5.026,0,0,1-1.985-1.81,7.094,7.094,0,0,1-1.175-3.686c-.109-1.976.376-4.179-1.641-5.4-1.235-.747-2.965-.588-4.436-.538q-.01-2-.006-3.99H7.657c-.152.518-.258,1.056-.387,1.571-.157.629,1.316.435,1.46-.14.114-.455.2-.954.333-1.431H9.11a1.624,1.624,0,0,1,1.659.944,4.768,4.768,0,0,1-.145,2.486A3.309,3.309,0,0,0,10.876,28.443ZM57.092,52.528H8.364c-1.642,0-3.337.123-4.976,0-2.229-.167-1.659-3.192-1.659-4.748v-11c0-3.1-.034-6.2-.055-9.3,1.415-.065,3.066-.188,3.991.947a4.061,4.061,0,0,1,.6,2.8,12.946,12.946,0,0,0,.259,3.149,6.957,6.957,0,0,0,1.619,3.051A4.948,4.948,0,0,0,10.463,39a1.864,1.864,0,0,0,2.269-1.546c.078-.913-.271-2.1.609-2.744.458-.334,1.17-.214,1.7-.4a3.439,3.439,0,0,0,1.253-.813c.577-.556,1.14-1.13,1.7-1.7a2.548,2.548,0,0,0,.792-2.638,3.431,3.431,0,0,0-1.9-1.926,2.218,2.218,0,0,0-1.679.24c-.5.292-.745.939-1.307,1.125-1.369.454-2.065-1.216-1.9-2.273a17,17,0,0,0,.368-2.4,2.43,2.43,0,0,0-2.133-2.393c-.239-.035-.486-.046-.732-.062a2.171,2.171,0,0,1,1.923-.994h5.257c.032.116.06.232.1.347a10.628,10.628,0,0,0,1.837,3.3,7.835,7.835,0,0,0,1.579,1.8,3.9,3.9,0,0,0,3.66-.227,3.32,3.32,0,0,0,1.866-2.838c.04-1.223,0-2.454,0-3.679v-3.7H42.187a12.681,12.681,0,0,1,.083,1.384v2.192c-2.284.662-4.215,2.377-6.113,3.733l-3.3,2.356c-.943.674-2.016.544-3.037,1.041a2.461,2.461,0,0,0-.893,3.889c.647.891,1.319,1.765,1.983,2.644l-1.267.009c-1.617.009-3.452.656-4.125,2.256a3.021,3.021,0,0,0-.2.75h-.689c-1.641,0-3.343-.141-4.775.841a3.036,3.036,0,0,0-.9.967,9.419,9.419,0,0,0-2.077.09,3.3,3.3,0,0,0-2.54,2.365A2.829,2.829,0,0,0,15.6,43a1.716,1.716,0,0,1,.9,1.278,9.2,9.2,0,0,1-.128,1.779c-.085,1.14-.274,2.407.86,3.1a2.634,2.634,0,0,0,3.259-.628,3.859,3.859,0,0,0,.6-1.722,13.939,13.939,0,0,1,.678-2.264,12.043,12.043,0,0,0,.958-4.612,2.394,2.394,0,0,0-1.86-2.316,3.63,3.63,0,0,0-.662-.08,2.741,2.741,0,0,1,.425-.656,1.552,1.552,0,0,1,1.056-.6c.115,0,.23,0,.344,0h3.254A3.174,3.174,0,0,0,27.521,39.1a7.5,7.5,0,0,0,1.893.184c.65.047.854.552.862,1.119.013,1.092,0,2.184,0,3.276a1.688,1.688,0,0,0,.239,1.161c.562.7,1.715.439,2.452.224a3.517,3.517,0,0,0,2.757-3.266c.039-1.746.012-3.5.005-5.243h1.9a5.145,5.145,0,0,1,1.386,0c.484.163.515.666.627,1.114.253,1.012.554,2.059,1.864,1.86,1-.153,1.533-1.2,2.088-1.942.186-.248.439-.778.708-.944.343-.212.915-.082,1.314-.088a3.759,3.759,0,0,0,1.909-.519l1.1.884a3.936,3.936,0,0,1,1.475,1.729,6.8,6.8,0,0,1,.17,2.243v.738a4.269,4.269,0,0,0-3.212,1.112,2.756,2.756,0,0,0-.689,2.655,2.788,2.788,0,0,0,2.078,1.9,8.857,8.857,0,0,0,1.981.083h1.775a1.718,1.718,0,0,0,.321-.038,3.689,3.689,0,0,0,2.644-1.35,2.719,2.719,0,0,0,.322-2.726,2.843,2.843,0,0,0-2.323-1.615,13.725,13.725,0,0,0-1.449-.023v-.774a12.33,12.33,0,0,0-.048-2.14,3.583,3.583,0,0,0-1.459-2.147l-1.806-1.444a2.611,2.611,0,0,0,.183-.392c.3-.827-.026-1.714,1.029-2.083a6.4,6.4,0,0,0,2.044-.68c1.082-.811.964-1.83,1.068-3.013.153-1.73,1.866-1.4,3.126-1.4h2.41V50.028C58.271,50.979,58.43,52.41,57.092,52.528ZM17.814,43.381c-.384-.914-1.4-1.13-1.841-1.988a2.153,2.153,0,0,1,.528-2.652,2.132,2.132,0,0,1,1.412-.275c.2,0,.405,0,.607,0-.081.218-.156.441-.232.67-.071.213,1.308.078,1.424-.272.042-.125.082-.252.123-.379a1.637,1.637,0,0,1,1.436,1.589,11.471,11.471,0,0,1-.473,3.3c-.32,1.064-.794,2.057-1.061,3.142-.136.553-.2,2.233-1.112,1.987-1.095-.294-.857-1.673-.8-2.5A5.785,5.785,0,0,0,17.814,43.381Zm33.91-.575v-.431h.088a2.468,2.468,0,0,1,1.337.278,2.354,2.354,0,0,1,1.108,2.279c-.095.746-.624,1.675-1.466,1.693H50.036a2.278,2.278,0,0,1-2.276-2.664A1.921,1.921,0,0,1,48.953,42.4a5,5,0,0,1,1.141-.024h.182v.819C50.276,43.563,51.724,43.316,51.724,42.806Z"/><path class="cls-4" d="M23.7,31.337h1a1.633,1.633,0,0,0,.732-.2c.133-.071.294-.166.294-.335v-2c0-.1-.214-.133-.264-.139a1.458,1.458,0,0,0-.534.056,1.41,1.41,0,0,0-.491.218.319.319,0,0,0-.159.253v1.472a1.7,1.7,0,0,0-.54.119.98.98,0,0,0-.4.243c-.052.068-.105.163-.016.233A.617.617,0,0,0,23.7,31.337Z"/></svg>