<?xml version="1.0" ?><svg id="Icons" viewBox="0 0 60 60" xmlns="http://www.w3.org/2000/svg"><defs><style>.cls-1{fill:#31b5a5;}.cls-2{fill:#34d6c6;}.cls-3{fill:#262626;}</style></defs><path class="cls-1" d="M45.555,52.792a.5.5,0,0,1-.326-.879l2.842-2.448-3.425,1.977a.5.5,0,0,1-.559-.826l2.041-1.6-1.44.831a.5.5,0,0,1-.6-.794l2.26-2.164-1.649.951a.5.5,0,0,1-.67-.7l1.215-1.881-2.124,1.226a.5.5,0,0,1-.622-.1.5.5,0,0,1-.031-.63l1.344-1.831-2.4,1.383a.5.5,0,0,1-.627-.761l1.544-1.771-2.857,1.649a.5.5,0,0,1-.566-.819l.17-.139-1.661.958a.5.5,0,0,1-.575-.813l2.7-2.3-5.4,3.119a.5.5,0,0,1-.539-.841l1.321-.936-3.078,1.777a.5.5,0,0,1-.534-.844L33.7,41.928l-4.325,2.5a.5.5,0,0,1-.532-.846l3.671-2.5-5.793,3.345a.5.5,0,0,1-.524-.851l2.5-1.635-4.3,2.486a.5.5,0,0,1-.53-.848l7.8-5.246L21.1,44.427a.5.5,0,1,1-.5-.865L43.742,30.2a.5.5,0,0,1,.529.848l-7.8,5.247L43.742,32.1a.5.5,0,0,1,.524.85l-2.495,1.632,1.972-1.138a.5.5,0,0,1,.531.846l-3.672,2.5,3.141-1.813a.5.5,0,0,1,.534.843L41.89,37.47l1.853-1.07a.5.5,0,0,1,.539.841l-1.318.934.779-.449a.5.5,0,0,1,.575.812l-2.7,2.307,2.307-1.331a.5.5,0,0,1,.566.819l-.167.137.11-.063a.5.5,0,0,1,.626.761l-1.543,1.77,1.858-1.072a.5.5,0,0,1,.653.729l-1.344,1.832,1.857-1.073a.5.5,0,0,1,.67.7L46,45.939l3.44-1.986a.5.5,0,0,1,.6.794l-2.258,2.162,3.974-2.294a.5.5,0,0,1,.559.826l-2.046,1.6,1.918-1.108a.5.5,0,0,1,.576.812L49.916,49.2l1.628-.939a.5.5,0,1,1,.5.865l-6.239,3.6A.489.489,0,0,1,45.555,52.792Z"/><path class="cls-1" d="M12.4,52.756a.5.5,0,0,1-.378-.828l1.023-1.178L11,51.932a.5.5,0,0,1-.572-.816l2.809-2.364L9.67,50.81a.5.5,0,0,1-.516-.856l12.188-7.665L8.7,49.587a.5.5,0,0,1-.512-.858l4.059-2.493L8.174,48.587a.5.5,0,0,1-.589-.8l.354-.327-.078.045a.5.5,0,0,1-.662-.716l.7-1.022a.487.487,0,0,1-.461-.249.5.5,0,0,1,.183-.683l1.62-.936a.5.5,0,0,1,.662.716l-.632.921,2.051-1.184a.5.5,0,0,1,.59.8l-.355.328L43.741,26.9a.5.5,0,0,1,.512.86L40.2,30.249,43.741,28.2a.5.5,0,0,1,.517.856L18.371,45.338a.5.5,0,0,1-.156.53l-2.93,2.465a.5.5,0,0,1,.473.819L14.734,50.33l.7-.405a.5.5,0,1,1,.5.865l-3.29,1.9A.489.489,0,0,1,12.4,52.756Z"/><path class="cls-1" d="M49.769,16.128A.5.5,0,0,1,49.4,15.3l.517-.582-1.456.841a.5.5,0,1,1-.5-.866L52.091,12.3a.5.5,0,0,1,.624.765l-.524.588a.5.5,0,0,1,.455.889l-2.627,1.518A.514.514,0,0,1,49.769,16.128Z"/><path class="cls-1" d="M44.9,12.294a.5.5,0,0,1-.4-.8l1.52-2.025-1.459.843a.5.5,0,0,1-.63-.758L44.4,9a.494.494,0,0,1-.23-.207.5.5,0,0,1,.183-.683l1.677-.968a.5.5,0,0,1,.63.758l-.069.081,1.043-.6a.5.5,0,0,1,.65.733l-1.52,2.026,2.8-1.617a.5.5,0,0,1,.5.867l-4.917,2.838A.5.5,0,0,1,44.9,12.294Z"/><path class="cls-1" d="M12.665,44.876a.5.5,0,0,1-.266-.924l7.212-4.509-4.475,2.583a.5.5,0,0,1-.521-.852l12.127-7.826L16.26,39.4a.5.5,0,0,1-.518-.854l7.779-4.936L16.26,37.8a.5.5,0,0,1-.514-.858l2.637-1.64-2.124,1.225a.5.5,0,0,1-.518-.854l10.593-6.738L16.259,34.752a.5.5,0,0,1-.518-.855L31.317,24.02,16.258,32.714a.5.5,0,0,1-.512-.859l5.1-3.136-4.584,2.646a.5.5,0,0,1-.52-.853l5.745-3.7-5.225,3.018a.5.5,0,0,1-.535-.844l9.468-6.581-8.934,5.158a.5.5,0,0,1-.538-.841l6.859-4.851-6.321,3.649a.5.5,0,0,1-.553-.831l5.68-4.325-5.128,2.961a.5.5,0,0,1-.541-.84l1.315-.942-.774.447a.5.5,0,0,1-.6-.793l2.812-2.709-2.661,1.536a.5.5,0,0,1-.631-.757l1.752-2.056-2.1,1.21a.5.5,0,0,1-.592-.8l.376-.353-.443.256a.5.5,0,0,1-.59-.8l.059-.055-.105.06a.5.5,0,0,1-.6-.787l.313-.313-.487.282a.5.5,0,0,1-.636-.751l.9-1.1L9.553,16.078a.5.5,0,0,1-.576-.812l2.245-1.926-3.115,1.8a.5.5,0,0,1-.579-.81l3.5-3.051L7.936,13.062a.5.5,0,0,1-.6-.788l2.321-2.3A.5.5,0,0,1,9.3,9.05l3.135-1.81a.5.5,0,0,1,.6.788l-2.257,2.24,4.206-2.429a.5.5,0,0,1,.579.81l-3.5,3.051,3.318-1.916a.5.5,0,0,1,.576.813l-2.244,1.924,1.218-.7a.5.5,0,0,1,.636.751l-.9,1.1,1.39-.8a.5.5,0,0,1,.6.787l-.312.311.637-.367a.5.5,0,0,1,.59.8l-.059.055.353-.2a.5.5,0,0,1,.593.8l-.377.354.861-.5a.5.5,0,0,1,.631.757l-1.751,2.056,3.7-2.134a.5.5,0,0,1,.6.793L19.3,19.079l6.067-3.5a.5.5,0,0,1,.541.84l-1.317.943,3.089-1.784a.5.5,0,0,1,.553.831l-5.681,4.326,8.933-5.157a.5.5,0,0,1,.539.841L25.17,21.264l9.856-5.69a.5.5,0,0,1,.536.843L26.09,23l12.864-7.427a.5.5,0,0,1,.521.854l-5.739,3.692L51.081,10.105a.5.5,0,0,1,.512.859L46.5,14.1l5.174-2.987a.5.5,0,0,1,.518.855L36.609,21.848l9.384-5.418a.5.5,0,0,1,.519.855l-10.6,6.74,8.2-4.735a.5.5,0,0,1,.514.857L42,21.785l1.74-1a.5.5,0,0,1,.518.856l-7.785,4.939,7.267-4.2a.5.5,0,0,1,.522.853L32.136,31.058l11.6-6.7a.5.5,0,0,1,.515.857l-7.2,4.5,6.687-3.861a.5.5,0,0,1,.5.866L12.915,44.809A.5.5,0,0,1,12.665,44.876Z"/><path class="cls-2" d="M34.059,46.927a.5.5,0,0,1-.25-.933l8.113-4.684a.5.5,0,0,1,.5.865l-8.113,4.684A.5.5,0,0,1,34.059,46.927Z"/><path class="cls-2" d="M56,35.47a.5.5,0,0,1-.358-.849l.061-.062-.647.373a.5.5,0,0,1-.621-.768l2.022-2.237L53.9,33.406a.5.5,0,0,1-.576-.811l1.155-.995-1.585.915a.5.5,0,0,1-.6-.793l2.593-2.492L47.9,33.263a.5.5,0,0,1-.5-.866l10.55-6.091a.5.5,0,0,1,.6.793l-2.595,2.492,2.622-1.513a.5.5,0,0,1,.576.812L58,29.882l.71-.41a.5.5,0,0,1,.621.768L57.31,32.477l1.029-.594a.5.5,0,0,1,.608.781l-.844.866a.5.5,0,0,1-.05.833l-1.8,1.039A.49.49,0,0,1,56,35.47Z"/><path class="cls-2" d="M54.23,26.555a.5.5,0,0,1-.25-.933L55.752,24.6a.5.5,0,0,1,.5.866L54.48,26.488A.5.5,0,0,1,54.23,26.555Z"/><path class="cls-2" d="M31.6,59.311a.5.5,0,0,1-.39-.814l1.379-1.712-4.146,2.394a.5.5,0,0,1-.587-.8l1.907-1.745-3.117,1.8a.5.5,0,0,1-.6-.79l2.882-2.826-3.536,2.042a.5.5,0,0,1-.551-.832l.588-.444a.5.5,0,0,1-.482-.856l2.969-2.481a.483.483,0,0,1-.438-.211.5.5,0,0,1,.083-.669l.82-.7-.374.216a.5.5,0,0,1-.532-.846l5.557-3.8-5.277,3.046a.5.5,0,0,1-.529-.847l5.92-3.983-5.8,3.352a.5.5,0,0,1-.52-.854l1.188-.763-1.363.787a.5.5,0,0,1-.52-.854L39.7,37.415l-15.419,8.9a.5.5,0,0,1-.512-.858l.156-.1-.746.43a.5.5,0,0,1-.523-.852l11.938-7.8L21.3,44.813a.5.5,0,0,1-.526-.85L33.36,35.624,19.565,43.588a.5.5,0,0,1-.52-.854l9.548-6.141-10.2,5.891a.5.5,0,0,1-.516-.855l5.372-3.377-5.763,3.326a.5.5,0,0,1-.523-.851L29.74,32.383,16.375,40.1a.5.5,0,0,1-.521-.854l11.083-7.134L15.473,38.729a.5.5,0,0,1-.525-.85l13.934-9.171L14.621,36.941a.5.5,0,0,1-.522-.851l11.809-7.664L14.044,35.275a.5.5,0,0,1-.521-.852l10.583-6.841L13.587,33.654a.5.5,0,0,1-.52-.853l8.909-5.729L11.7,33.007a.5.5,0,0,1-.515-.857l3.237-2.024L9.961,32.7a.5.5,0,0,1-.519-.854l8.175-5.207-10.2,5.886a.5.5,0,1,1-.5-.865L37.005,14.289a.5.5,0,0,1,.518.855l-8.172,5.205,9.143-5.279a.5.5,0,0,1,.515.857l-3.25,2.033,3.781-2.183a.5.5,0,0,1,.521.853l-8.9,5.722,9.671-5.584a.5.5,0,0,1,.521.853L30.769,24.465l11.287-6.516a.5.5,0,0,1,.522.852L30.769,26.464,43.185,19.3a.5.5,0,0,1,.524.85l-13.931,9.17,14.561-8.407a.5.5,0,0,1,.52.853L33.767,28.9l11.289-6.517a.5.5,0,0,1,.523.851L32.8,31.579l12.971-7.488a.5.5,0,0,1,.515.856l-5.374,3.379,5.208-3.007a.5.5,0,0,1,.521.853L37.1,32.312l9.854-5.69a.5.5,0,0,1,.527.85L34.887,35.813l14.827-8.562a.5.5,0,0,1,.523.852L38.3,35.91l14.6-8.427a.5.5,0,0,1,.512.859l-.148.092,4.436-2.562a.5.5,0,0,1,.52.854l-13.564,8.7,1.214-.7a.5.5,0,0,1,.521.853l-1.2.771.089-.052a.5.5,0,0,1,.53.847l-5.917,3.981,4.057-2.343a.5.5,0,0,1,.533.846L33.3,47.265a.5.5,0,0,1-.116.618l-.88.75a.5.5,0,0,1,.459.864l-2.735,2.284,1.855-1.07a.5.5,0,0,1,.667.156.5.5,0,0,1-.115.676l-.54.406a.5.5,0,0,1,.553.815L29.568,55.59l3.659-2.112a.5.5,0,0,1,.587.8l-1.907,1.746,2.5-1.445a.5.5,0,0,1,.64.746l-1.379,1.712.668-.386a.5.5,0,0,1,.5.866l-2.988,1.725A.493.493,0,0,1,31.6,59.311Z"/><path class="cls-2" d="M3.928,35.45a.5.5,0,0,1-.27-.921L18.15,25.22,2.414,34.305a.5.5,0,0,1-.548-.834L3.4,32.328l-1.585.915a.5.5,0,0,1-.607-.782L3.7,29.916l-2.34,1.35a.5.5,0,0,1-.581-.808l1.2-1.063-.638.369a.5.5,0,0,1-.577-.811l.557-.483h0a.5.5,0,0,1-.37-.836l1.017-1.119a.489.489,0,0,1-.206-.2.5.5,0,0,1,.183-.683l1.8-1.04a.5.5,0,0,1,.619.77l-.514.565L5.116,25.2a.5.5,0,0,1,.577.811l-.293.253.4-.232a.5.5,0,0,1,.581.808l-1.2,1.064,1.179-.681a.5.5,0,0,1,.607.783L4.474,30.554l5.866-3.387a.5.5,0,0,1,.548.834L9.354,29.144,35.918,13.806a.5.5,0,0,1,.52.854L6.307,34.016a.491.491,0,0,1-.221.264l-1.908,1.1A.494.494,0,0,1,3.928,35.45Z"/><path class="cls-2" d="M13.547,26.582a.5.5,0,0,1-.27-.921l2-1.282-1.049.606a.5.5,0,0,1-.537-.843l9.3-6.517-7.377,4.259a.5.5,0,0,1-.573-.815l4.34-3.672a.5.5,0,0,1-.432-.9l4.745-2.74a.5.5,0,0,1,.573.815l-4.316,3.651,12.4-7.158a.5.5,0,0,1,.537.843l-9.3,6.517,9.5-5.483a.5.5,0,0,1,.521.854l-2,1.283,3.011-1.739a.5.5,0,0,1,.5.866L13.8,26.515A.494.494,0,0,1,13.547,26.582Z"/><path class="cls-2" d="M27.013,13.455a.5.5,0,0,1-.323-.882l.9-.764a.5.5,0,0,1-.466-.857l.795-.7a.5.5,0,0,1-.521-.843l2.6-2.151L28.14,8.339a.5.5,0,0,1-.593-.8l2.932-2.763L27.115,6.721a.5.5,0,0,1-.609-.782l2.4-2.473L25.568,5.393a.5.5,0,0,1-.647-.737l1.3-1.7-.443.255a.5.5,0,0,1-.5-.866L27.891.837a.5.5,0,0,1,.647.737l-1.3,1.7L31.51.807a.5.5,0,0,1,.609.781l-2.4,2.475,3.97-2.293a.5.5,0,0,1,.593.8L31.352,5.33,34.68,3.408a.5.5,0,0,1,.568.819l-3.1,2.56a.5.5,0,0,1,.258.871l-.784.687.252-.146a.5.5,0,0,1,.573.815l-.842.711.439-.253a.5.5,0,1,1,.5.866l-5.283,3.05A.494.494,0,0,1,27.013,13.455Z"/><path class="cls-1" d="M25.932,27.329a.5.5,0,0,1-.4-.8l1.347-1.81-3.743,2.161a.5.5,0,0,1-.595-.8l1.8-1.712L21.81,25.833a.5.5,0,0,1-.574-.814l.69-.588-.561.324a.5.5,0,0,1-.623-.766L21.626,23a.5.5,0,0,1-.226-.932l2.268-1.309a.5.5,0,0,1,.623.766l-.713.8,2.613-1.509a.5.5,0,0,1,.574.814l-.691.588,1.384-.8a.5.5,0,0,1,.6.794l-1.8,1.712,2.215-1.278a.5.5,0,0,1,.651.731l-1.347,1.811.444-.256a.5.5,0,1,1,.5.866l-2.538,1.465A.5.5,0,0,1,25.932,27.329Z"/><path class="cls-1" d="M27.622,39.376a.5.5,0,0,1-.347-.861l.3-.286-1.68.969a.5.5,0,0,1-.571-.816L25.78,38l-1.117.645a.5.5,0,0,1-.611-.779l2.113-2.2-2.676,1.545a.494.494,0,0,1-.624-.1.5.5,0,0,1-.027-.631l1.222-1.633-.16.092a.5.5,0,0,1-.5-.866l2.268-1.309a.5.5,0,0,1,.651.732L25.1,35.126,28.71,33.04a.5.5,0,0,1,.611.778l-2.112,2.2,3.059-1.766a.5.5,0,0,1,.571.816l-.46.385.271-.156a.5.5,0,0,1,.6.794l-.546.523a.5.5,0,0,1,.222.932l-3.05,1.761A.5.5,0,0,1,27.622,39.376Z"/><path class="cls-1" d="M34.956,32.313a.5.5,0,0,1-.351-.857l1.6-1.577-2.8,1.615a.5.5,0,0,1-.6-.785l2-2.017-2.359,1.362a.5.5,0,0,1-.641-.744l1.088-1.37a.5.5,0,0,1-.493-.87l2.269-1.309a.5.5,0,0,1,.642.744l-1.087,1.368,3.32-1.917a.5.5,0,0,1,.6.785l-2,2.017,2.945-1.7a.5.5,0,0,1,.6.789l-1.6,1.578L39.7,28.5a.5.5,0,0,1,.6.786l-.756.758a.484.484,0,0,1,.231.208.5.5,0,0,1-.182.683l-2.269,1.309a.5.5,0,0,1-.6-.786l.2-.2-1.726,1A.49.49,0,0,1,34.956,32.313Z"/><path class="cls-3" d="M56.8,24.6c-2-.458-3.385,1.16-4.052,2.838a13.507,13.507,0,0,1-4.727-.714c-.777-.306-.732-.822-.946-1.579a16.959,16.959,0,0,0-.629-1.817,17.4,17.4,0,0,0-1.637-3.06,18.9,18.9,0,0,1,3.227-4.538,4.049,4.049,0,0,0,4.363-.288,3.307,3.307,0,0,0,.441-3.822,8.1,8.1,0,0,0-3.6-3.891,4.673,4.673,0,0,0-4.3-.333c-1.843.977-1.548,3.086-.767,4.684a18.267,18.267,0,0,1-4.4,3.258,17.565,17.565,0,0,0-3.192-1.627,17.1,17.1,0,0,0-1.663-.547,3.708,3.708,0,0,1-1.033-.247c-.293-.235-.365-.812-.452-1.143a19.048,19.048,0,0,1-.613-4.84c1.6-.633,3.493-1.944,2.754-3.849C34.811,1.1,32.031.526,30.174.531c-1.926.006-4.6.6-5.6,2.47-1.079,2,.9,3.451,2.6,4.059a19.957,19.957,0,0,1-.9,5.917,18.093,18.093,0,0,0-5.808,2.417,19.552,19.552,0,0,1-2.6-1.648q-.677-.516-1.3-1.089a4.211,4.211,0,0,1-.586-.561c-.14-.2-.14-.144-.126-.375.011-.184.216-.446.287-.632a3.249,3.249,0,0,0-.052-2.952A2.345,2.345,0,0,0,14.21,7.2,7.473,7.473,0,0,0,8.834,9.544c-1.2,1.2-2.5,3.206-1.956,4.987.621,2.018,3.022,1.644,4.728.976a19.145,19.145,0,0,1,3.62,5.022,17.616,17.616,0,0,0-2.583,6.082,18.744,18.744,0,0,1-5.3.818c-.642-1.812-2.082-3.454-4.185-2.715C.977,25.482.231,28.2.276,30.277c.041,1.912.761,4.629,2.927,5.124,2,.458,3.385-1.16,4.052-2.838a13.507,13.507,0,0,1,4.727.714c.777.306.732.822.946,1.579a16.959,16.959,0,0,0,.629,1.817,17.384,17.384,0,0,0,1.628,3.044,18.837,18.837,0,0,1-3.229,4.528c-1.418-.609-3.134-.836-4.355.278a3.362,3.362,0,0,0-.438,3.858,8.121,8.121,0,0,0,3.6,3.912,4.642,4.642,0,0,0,4.305.353c1.827-.989,1.542-3.1.771-4.7a18.236,18.236,0,0,1,4.419-3.257,17.645,17.645,0,0,0,3.155,1.6,17.1,17.1,0,0,0,1.663.547,3.708,3.708,0,0,1,1.033.247c.293.235.365.812.452,1.143a19.088,19.088,0,0,1,.614,4.84c-1.6.633-3.494,1.943-2.755,3.849.768,1.981,3.548,2.558,5.405,2.553,1.926-.006,4.6-.605,5.6-2.47,1.079-2-.9-3.451-2.6-4.059a19.952,19.952,0,0,1,.9-5.917,18.109,18.109,0,0,0,5.8-2.412,19.561,19.561,0,0,1,2.606,1.654q.676.516,1.3,1.089a4.208,4.208,0,0,1,.586.561c.137.191.146.133.12.353a3.819,3.819,0,0,1-.287.632,3.33,3.33,0,0,0,.011,2.894,2.33,2.33,0,0,0,1.858,1.027,7.229,7.229,0,0,0,5.29-2.2c1.265-1.2,2.632-3.25,2.122-5.092-.577-2.087-3.063-1.747-4.774-1.074a19.061,19.061,0,0,1-3.592-4.986,17.625,17.625,0,0,0,2.582-6.082,18.744,18.744,0,0,1,5.3-.818c.641,1.8,2.088,3.461,4.186,2.715,2.142-.762,2.842-3.319,2.891-5.359C59.682,27.963,59.065,25.117,56.8,24.6ZM45.577,12.24a.377.377,0,0,0,.07-.487c-.5-.924-1.345-3.532.4-3.76,1.412-.185,2.952.934,3.872,1.879a5.634,5.634,0,0,1,1.855,3.936,1.515,1.515,0,0,1-.7,1.335c-.783.385-1.891-.146-2.571-.517a1.044,1.044,0,0,0-1.162.214,19.547,19.547,0,0,0-3.364,4.316,16.9,16.9,0,0,0-1.535-1.718,17.671,17.671,0,0,0-1.789-1.48A20.13,20.13,0,0,0,45.577,12.24ZM12.743,14.773c-.256-.245-1,.1-1.238.226a2.263,2.263,0,0,1-2.621.016,2.037,2.037,0,0,1-.662-1.469,5.786,5.786,0,0,1,1.924-4.111c.909-.906,2.446-2.109,3.808-1.471,1.664.781,1.021,2.995.351,4.224a.085.085,0,0,0,.032.119,19.261,19.261,0,0,0,5.117,3.781,18,18,0,0,0-3.275,3.151A19.358,19.358,0,0,0,12.743,14.773ZM14.415,47.73a.423.423,0,0,0-.059.528c.512.938,1.327,3.47-.412,3.708-1.408.192-2.942-.906-3.864-1.85A5.59,5.59,0,0,1,8.231,46.2c.116-1.905,2.054-1.471,3.27-.808a.989.989,0,0,0,1.164-.206,19.485,19.485,0,0,0,3.367-4.332,16.868,16.868,0,0,0,1.524,1.7,17.51,17.51,0,0,0,1.753,1.454A20.133,20.133,0,0,0,14.415,47.73ZM47.26,45.237c.231.221.894-.011,1.107-.127a2.458,2.458,0,0,1,2.622-.213,1.92,1.92,0,0,1,.778,1.418,5.588,5.588,0,0,1-1.845,4.153c-.883.907-2.431,2.121-3.792,1.587-1.765-.691-1.105-3-.433-4.232a.111.111,0,0,0-.037-.14,19.248,19.248,0,0,0-5.107-3.776,18.033,18.033,0,0,0,3.268-3.146A19.334,19.334,0,0,0,47.26,45.237Zm9.728-11.154c-1.429,1.391-2.642-1.07-2.983-2.187a.475.475,0,0,0-.459-.276,21.182,21.182,0,0,0-6.952,1.059.881.881,0,0,0-.587.446,14.369,14.369,0,0,0-3.662,1.934c-.068.051-.094.127-.028.185s.29.048.367.04a1.951,1.951,0,0,0,.971-.343c.235-.176.482-.34.734-.494.287-.177.548-.321.8-.446.222-.111.449-.209.675-.309a16.445,16.445,0,0,1-11.8,12.337,12.357,12.357,0,0,1,1.618-3.006c.206-.275-.176-.444-.4-.447a1.182,1.182,0,0,0-.955.4,13.607,13.607,0,0,0-1.91,3.743.619.619,0,0,0-.032.063,19.981,19.981,0,0,0-1.02,6.57.358.358,0,0,0,.3.369c1.191.364,2.983,1.286,2.546,2.838s-2.678,1.964-4.031,1.961a5.133,5.133,0,0,1-4.03-1.548c-1.181-1.536.477-2.832,1.882-3.262.2-.06.609-.235.613-.5a20.383,20.383,0,0,0-1.024-6.691h0a13.6,13.6,0,0,0-1.939-3.792c-.071-.095-.29-.11-.387-.111a1.452,1.452,0,0,0-.567.116c-.19.083-.586.294-.4.547a11.978,11.978,0,0,1,1.454,2.607A16.812,16.812,0,0,1,14.3,34.142a11.6,11.6,0,0,1,2.133,1.249c.458.343,1.76-.312,1.132-.782a13.777,13.777,0,0,0-3.848-1.95c-.018-.006-.04,0-.059-.009A21.032,21.032,0,0,0,6.8,31.623a.891.891,0,0,0-.81.54A3.715,3.715,0,0,1,4.718,34.3c-.731.429-1.334.02-1.823-.562a6.178,6.178,0,0,1-1.161-4.011,5.593,5.593,0,0,1,1.278-3.8C4.441,24.526,5.654,26.987,6,28.1a.475.475,0,0,0,.458.276,21.113,21.113,0,0,0,6.554-.947.8.8,0,0,0,.425-.01,14.494,14.494,0,0,0,4.056-2.061.494.494,0,0,0,.064-.8.921.921,0,0,0-1.042.075c-.134.1-.27.2-.408.292l-.211.14-.017.01-.1.059c-.277.168-.562.325-.852.471-.23.116-.465.22-.7.323A16.438,16.438,0,0,1,25.905,13.979c-.155.394-.322.784-.512,1.162-.15.3-.311.6-.485.882-.044.073-.089.145-.135.217.044-.069-.076.114-.089.133q-.141.207-.292.408a.433.433,0,0,0,.191.713.985.985,0,0,0,1.025-.275,13.791,13.791,0,0,0,1.976-3.842.456.456,0,0,0,.012-.114.4.4,0,0,0,.023-.046,19.981,19.981,0,0,0,1.02-6.57.358.358,0,0,0-.3-.369C27.15,5.914,25.358,4.992,25.8,3.44s2.678-1.964,4.031-1.961a5.133,5.133,0,0,1,4.03,1.548c1.181,1.536-.477,2.832-1.882,3.262-.2.06-.609.235-.613.5a20.388,20.388,0,0,0,1.025,6.691,13.71,13.71,0,0,0,1.948,3.823c.2.274.711.209.975.077.236-.118.573-.4.357-.691a11.978,11.978,0,0,1-1.443-2.575,16.809,16.809,0,0,1,11.49,11.8,11.432,11.432,0,0,1-2.038-1.194,1.033,1.033,0,0,0-.952.01c-.119.052-.655.346-.4.538A13.585,13.585,0,0,0,46.068,27.2a.572.572,0,0,0,.211.132,21.037,21.037,0,0,0,6.92,1.045.891.891,0,0,0,.81-.54c.422-1.379,1.572-3.243,3-1.678a6.041,6.041,0,0,1,1.261,3.914A5.823,5.823,0,0,1,56.988,34.083Z"/><path class="cls-3" d="M25.848,27.169c1.711-.321,3.835-1.366,3.876-3.363-.034-1.647-1.616-2.682-3.084-2.979a6.471,6.471,0,0,0-5.362,1.306,2.593,2.593,0,0,0-.311,3.752A5.244,5.244,0,0,0,25.848,27.169Zm-3.637-4.748a3.15,3.15,0,0,1,3.353-1.016,3.18,3.18,0,0,1,2.712,2.789,2.686,2.686,0,0,1-2.116,2.448,4.186,4.186,0,0,1-3.691-1.1A2.367,2.367,0,0,1,22.211,22.421Z"/><path class="cls-3" d="M28.709,32.726a6.019,6.019,0,0,0-5.367,1.193,2.81,2.81,0,0,0-.424,3.943A5.291,5.291,0,0,0,27.78,39.38c1.751-.28,3.906-1.44,3.948-3.457A3.611,3.611,0,0,0,28.709,32.726Zm-4.182,4.833a2.186,2.186,0,0,1-.348-2.967,3.483,3.483,0,0,1,3.334-1.078c1.27.216,2.729,1.129,2.759,2.563C30.213,38.9,26.158,39.112,24.527,37.559Z"/><path class="cls-3" d="M37.689,25.651a5.809,5.809,0,0,0-5.317,1.141,2.948,2.948,0,0,0-.447,4.1,5.316,5.316,0,0,0,4.883,1.592c1.8-.28,3.885-1.49,3.928-3.532A3.717,3.717,0,0,0,37.689,25.651Zm-.5,5.658a4.063,4.063,0,0,1-3.706-.814,2.037,2.037,0,0,1-.32-2.791,3.629,3.629,0,0,1,3.394-1.095c1.229.189,2.674,1.047,2.7,2.44A2.517,2.517,0,0,1,37.193,31.309Z"/></svg>