<?xml version="1.0" ?><svg id="Icons" viewBox="0 0 60 60" xmlns="http://www.w3.org/2000/svg"><defs><style>.cls-1{fill:#b9bfcc;}.cls-2{fill:#d6dbe3;}.cls-3{fill:#262626;}</style></defs><path class="cls-1" d="M8.348,29.813A.5.5,0,0,1,8,28.957L9.888,27.1l-1.608.927a.5.5,0,0,1-.574-.813l.539-.458a.5.5,0,0,1-.575-.8L9.554,24l-1.275.735a.5.5,0,0,1-.613-.776l1.447-1.532-.834.481a.5.5,0,0,1-.7-.655l.531-1.07a.5.5,0,0,1-.248-.933l1.127-.65a.492.492,0,0,1,.592.068.5.5,0,0,1,.106.587l-.477.96,2.363-1.364a.5.5,0,0,1,.613.776l-1.447,1.532,1.38-.8a.5.5,0,0,1,.609.78L10.847,24.1l1.674-.966a.5.5,0,0,1,.574.813l-.531.452.216-.125a.5.5,0,0,1,.6.79l-1.891,1.862,1.672-.965a.5.5,0,0,1,.719.605l-.6,1.62.337-.2a.5.5,0,1,1,.5.866l-1.535.885a.5.5,0,0,1-.719-.605l.6-1.619L8.6,29.746A.488.488,0,0,1,8.348,29.813Z"/><path class="cls-1" d="M29.107,30.389a.5.5,0,0,1-.3-.9l.873-.668-1.4.806a.5.5,0,0,1-.562-.823l2.26-1.8-1.7.979a.5.5,0,0,1-.571-.816l2.427-2.026L28.28,26.213a.5.5,0,0,1-.575-.813l2.161-1.85-1.586.916a.5.5,0,0,1-.572-.816l1.354-1.133-.783.451a.5.5,0,0,1-.585-.8l1.659-1.5-1.074.619a.5.5,0,0,1-.607-.782l1.941-1.986-1.334.769a.5.5,0,0,1-.611-.778L28.831,17.3l-.552.318a.5.5,0,0,1-.686-.678l.431-.763a.5.5,0,0,1-.159-.925l1.127-.65a.5.5,0,0,1,.686.678l-.315.559,2-1.156a.5.5,0,0,1,.612.778l-1.161,1.211,1.446-.834a.5.5,0,0,1,.607.782L30.928,18.6l2.025-1.169a.5.5,0,0,1,.585.8l-1.659,1.5,1.655-.955a.5.5,0,0,1,.571.816l-1.352,1.133,1.3-.75a.5.5,0,0,1,.575.813L32.468,22.64l2.187-1.263a.5.5,0,0,1,.571.816l-2.43,2.03L35.268,22.8a.5.5,0,0,1,.561.823l-2.262,1.8,2.27-1.31a.5.5,0,0,1,.554.83l-.871.667.771-.445a.5.5,0,0,1,.645.739l-1.411,1.815,1.5-.863a.5.5,0,0,1,.592.069.5.5,0,0,1,.105.588l-.186.371a.5.5,0,0,1,.445.893l-1.381.8A.5.5,0,0,1,36,29.505a.5.5,0,0,1-.1-.588l.182-.364-2.267,1.308a.5.5,0,0,1-.644-.739l1.41-1.815-5.222,3.014A.5.5,0,0,1,29.107,30.389Z"/><path class="cls-2" d="M22.219,38.471a.5.5,0,0,1-.28-.914l1.433-.968L20.229,38.4a.5.5,0,0,1-.538-.841l3.6-2.537L17.442,38.4a.5.5,0,0,1-.549-.833l5.252-3.938-7.033,4.06a.5.5,0,0,1-.562-.823l5.129-4.1L13.208,36.5a.5.5,0,0,1-.538-.841l1.075-.761-1.61.93a.5.5,0,0,1-.567-.819l3.019-2.47-4.01,2.314a.5.5,0,0,1-.577-.81l2.26-1.957L9.117,33.9a.5.5,0,0,1-.584-.8l1.381-1.24-1.525.88a.5.5,0,0,1-.6-.794l.439-.421a.5.5,0,0,1-.688-.576l.288-1.17a.49.49,0,0,1-.235-.209.5.5,0,0,1,.183-.683l.5-.288a.5.5,0,0,1,.55.034.5.5,0,0,1,.185.518l-.22.9,2.513-1.45a.5.5,0,0,1,.6.794l-.428.41,2.087-1.2a.5.5,0,0,1,.584.8l-1.382,1.241L16.307,28.6a.5.5,0,0,1,.577.81l-2.261,1.958,4.8-2.768a.5.5,0,0,1,.566.819l-3.017,2.469,5.7-3.288a.5.5,0,0,1,.539.84l-1.067.754L24.9,28.6a.5.5,0,0,1,.562.823l-5.13,4.1L28.867,28.6a.5.5,0,0,1,.55.833l-5.255,3.939L32.43,28.6a.5.5,0,0,1,.538.841l-3.6,2.536L35.216,28.6a.5.5,0,0,1,.529.846l-1.434.969L37.456,28.6a.5.5,0,0,1,.553.831l-5.454,4.139,8.611-4.97a.5.5,0,0,1,.54.84l-4,2.847L44.094,28.6a.5.5,0,0,1,.529.847l-1.233.83,2.564-1.48a.5.5,0,0,1,.531.846l-1.808,1.233,2.334-1.347a.5.5,0,0,1,.554.829L43.17,33.73l4.758-2.747a.5.5,0,0,1,.56.825l-2.92,2.311,3.058-1.765a.5.5,0,0,1,.6.792l-2.451,2.38,4.919-2.839a.5.5,0,0,1,.61.78l-2.214,2.294,3.278-1.892A.5.5,0,0,1,54,34.63l-1.23,1.416.858-.495a.5.5,0,1,1,.5.865L50.682,38.4a.5.5,0,0,1-.628-.76l1.23-1.416L47.513,38.4a.5.5,0,0,1-.61-.78l2.213-2.293L43.791,38.4a.5.5,0,0,1-.6-.791l2.452-2.382-5.5,3.173a.5.5,0,0,1-.56-.824l2.919-2.31L37.075,38.4a.5.5,0,0,1-.554-.829l4.4-3.376-7.284,4.2a.5.5,0,0,1-.531-.845l1.8-1.231L31.31,38.4a.5.5,0,0,1-.53-.847l1.235-.83L29.107,38.4a.5.5,0,0,1-.54-.84l4-2.848L26.179,38.4a.5.5,0,0,1-.552-.831l5.454-4.14L22.469,38.4A.5.5,0,0,1,22.219,38.471Z"/><path class="cls-1" d="M31.1,51.47a.5.5,0,0,1-.4-.8l.688-.933-2.633,1.52a.5.5,0,0,1-.565-.821l.569-.463-.475.274a.5.5,0,0,1-.656-.142.5.5,0,0,1,.076-.667l3.339-2.934L28.28,48.1a.5.5,0,0,1-.55-.833l1.2-.9-.654.378a.5.5,0,0,1-.542-.839l.5-.357a.5.5,0,0,1-.5-.858l2.192-1.619-1.646.951a.5.5,0,0,1-.575-.813l3.557-3.048-2.982,1.722a.5.5,0,0,1-.586-.8L29.1,39.8l-.822.474a.5.5,0,0,1-.709-.63l.635-1.472a.505.505,0,0,1-.523-.242.5.5,0,0,1,.183-.683l1.127-.65a.5.5,0,0,1,.709.631l-.615,1.426L32.652,36.6a.5.5,0,0,1,.586.8l-1.407,1.277,3.6-2.08a.5.5,0,0,1,.575.812l-3.558,3.048,4.687-2.705a.5.5,0,0,1,.547.835L35.5,40.2l.879-.508a.5.5,0,0,1,.542.839l-.994.715h.008a.5.5,0,0,1,.3.9l-1.247.934a.5.5,0,0,1,.505.845L32.15,46.861l1.537-.886a.5.5,0,0,1,.565.82l-1.005.817a.5.5,0,0,1,.362.795l-1.076,1.46a.5.5,0,0,1-.012.859l-1.172.676A.49.49,0,0,1,31.1,51.47Z"/><path class="cls-3" d="M8.942,20.312H8.91l-.08.11A.125.125,0,0,0,8.942,20.312Z"/><path class="cls-3" d="M36.267,32.535h-3a1.337,1.337,0,0,0-.569.106.815.815,0,0,0-.381.312c-.144.3.124.512.416.512h3a1.344,1.344,0,0,0,.57-.106.818.818,0,0,0,.38-.312C36.827,32.75,36.559,32.535,36.267,32.535Z"/><path class="cls-3" d="M21.159,33.3h.371a1.882,1.882,0,0,0,1.025-.274c.063-.044.2-.122.169-.216s-.189-.1-.254-.1h-3a1.882,1.882,0,0,0-1.025.274c-.063.043-.2.122-.169.216s.189.1.254.1Z"/><path class="cls-3" d="M50.924,9.074A28.845,28.845,0,0,0,39.7,2.179a30.7,30.7,0,0,0-32.522,9.18,29.352,29.352,0,0,0-2.4,34.362,28.645,28.645,0,0,0,3.956,4.906.35.35,0,0,0,.249.259A30.023,30.023,0,0,0,59.367,34.372a30.614,30.614,0,0,0,.357-4.566A29.461,29.461,0,0,0,51.267,9.4C51.266,9.247,51.131,9.13,50.924,9.074ZM5.7,15.187a27.952,27.952,0,0,1,30.54-13.1,28.639,28.639,0,0,1,13.343,7.5L36.217,22.954q-1.392-3.245-2.782-6.49c-.369-.862-.617-1.691-1.613-1.894a.562.562,0,0,0-.216-.043c-1.18,0-3-.325-3.905.6-.6.612-.43,1.6-.43,2.388V28.539H14.665q-.832-3.75-1.667-7.5c-.032-.144-.058-.291-.1-.434a1.264,1.264,0,0,0-1.239-.916c-.783,0-1.572-.033-2.355,0-.744.032-1.8.381-2,1.2a2.65,2.65,0,0,0-.034.617v7.549a.1.1,0,0,0,0,.018c0,1.671-.437,3.826,1.134,4.915,1.5,1.044,3.122,1.953,4.674,2.924,1.176.736,2.163,1.524,3.6,1.546,1.341.02,2.683.013,4.025.006L13.991,45.18,9.565,49.606c-.6-.638-1.187-1.3-1.731-1.993A29.172,29.172,0,0,1,5.7,15.187ZM36.547,27.494l.443,1.033H32.3q1.64-1.641,3.281-3.281Q36.066,26.37,36.547,27.494Zm6.259,1.967c.671,0,1.35-.029,2.02,0,1.749.076,2.453,1.6,3.106,3.008H41.064c-.314,0-.762.243-.8.586-.039.379.385.476.67.476h8a.9.9,0,0,0,.324-.078c.647-.012,1.3-.032,1.94.008,2.162.133,3.064,3.677.517,4.078a26.5,26.5,0,0,1-3.955,0H38.135a1.454,1.454,0,0,0-1.384-.989c-1.352-.075-2.73,0-4.084,0h-2.59a4.487,4.487,0,0,0-1.724.171,1.581,1.581,0,0,0-.882.818H23.29l.641-.641,3.527-3.527h1.249a1.279,1.279,0,0,0,.961-.379c.2-.272-.174-.363-.375-.363H28.2l3.156-3.156h6.379a1.221,1.221,0,0,0,.139-.012ZM31.864,49.691c-.051.119-.272.819-.427.859H29.689c-.542,0-.918-.152-.961-.761-.079-1.107,0-2.248,0-3.357,0-2.8-.082-5.611,0-8.409a2.011,2.011,0,0,1,.047-.531c.014-.02.015-.029.012-.033a.218.218,0,0,0,.024-.009.722.722,0,0,1,.232,0h6.576c.5,0,1.147-.054,1.136.69a2.183,2.183,0,0,1-.266.76l-1.577,3.68-2.268,5.291ZM8.818,20.439l.012-.017c-.157.022-.394-.126-.254-.11a1.827,1.827,0,0,0,.222,0H8.91c.022-.032.042-.06.042-.062a.187.187,0,0,1-.01.062h1.79c.63.04.719.673.827,1.158l.417,1.874q.523,2.355,1.046,4.711l.108.484H8.724V21.892A3.5,3.5,0,0,1,8.818,20.439Zm-.1,9.022H27.658a.65.65,0,0,0,.077.012H29.7l-3.156,3.156h-.249a1.279,1.279,0,0,0-.961.379c-.2.272.174.363.375.363H25.8l-4.168,4.168H18.224A4.876,4.876,0,0,1,15.24,36.8l-5.033-3.149c-.8-.5-1.4-.928-1.478-1.989C8.678,30.933,8.705,30.194,8.719,29.461Zm20.01-13.379c0-.05,0-.1,0-.154.046-.477-.031-.455.423-.455h1.923c.55.054.8,1.124.976,1.529l1.359,3.172,1.676,3.911-4.442,4.442H28.728C28.723,24.381,28.641,20.227,28.729,16.082ZM58.276,30.194A28.912,28.912,0,0,1,39.643,57.108c-10.161,3.687-21.653.729-29.251-6.671L22.368,38.461H27.26c-.025.446.012.919.012,1.364v5.5c0,1.539-.027,3.081,0,4.62.035,1.958,2.454,1.5,3.8,1.5.018,0,.042,0,.061,0,.042,0,.086,0,.123,0s.044-.011.068-.014l.026,0c1.469-.2,1.771-1.409,2.277-2.588q1.053-2.46,2.108-4.92L37.7,39.333c.125-.29.257-.579.374-.872h8.462c1.476,0,2.953.02,4.429,0,2-.027,4.189-1.347,3.706-3.657-.512-2.45-3.1-2.291-5.072-2.267-.687-1.44-1.3-3.152-2.9-3.751a5.777,5.777,0,0,0-2.124-.247H38.61l-1.9-4.424,9.3-9.295q2.2-2.2,4.4-4.4a28.934,28.934,0,0,1,7.549,15.439A30.467,30.467,0,0,1,58.276,30.194Z"/><path class="cls-3" d="M15.718,17.41h8a1.158,1.158,0,0,0,.956-.395c.167-.287-.141-.426-.392-.426h-8a1.158,1.158,0,0,0-.956.4C15.159,17.272,15.467,17.41,15.718,17.41Z"/><path class="cls-3" d="M17.526,12.281h8a1.961,1.961,0,0,0,1.025-.275c.211-.14.219-.287-.077-.287h-8a1.961,1.961,0,0,0-1.025.275C17.238,12.134,17.23,12.281,17.526,12.281Z"/><path class="cls-3" d="M24.28,21.584h-4a1.164,1.164,0,0,0-.955.4c-.182.285.155.435.395.435h4a1.162,1.162,0,0,0,.955-.4C24.857,21.734,24.52,21.584,24.28,21.584Z"/><path class="cls-3" d="M24.468,48.7h-7a1.843,1.843,0,0,0-1.024.275c-.208.144-.215.327.088.327h7a1.843,1.843,0,0,0,1.024-.275C24.764,48.882,24.771,48.7,24.468,48.7Z"/><path class="cls-3" d="M26.59,53.7a.861.861,0,0,0-.286-.025h-1a1.371,1.371,0,0,0-.278.04,1.593,1.593,0,0,0-.287.082,1.1,1.1,0,0,0-.234.114.614.614,0,0,0-.166.125c-.052.065-.107.157-.019.224l.09.044a.861.861,0,0,0,.286.025h1a1.371,1.371,0,0,0,.278-.04,1.593,1.593,0,0,0,.287-.082,1.1,1.1,0,0,0,.234-.114.614.614,0,0,0,.166-.125c.052-.065.107-.157.019-.224Z"/><path class="cls-3" d="M21.7,44.326h2a1.694,1.694,0,0,0,.565-.123,1.019,1.019,0,0,0,.4-.237c.052-.065.107-.156.019-.224a.631.631,0,0,0-.375-.068h-2a1.694,1.694,0,0,0-.566.123,1.019,1.019,0,0,0-.4.237c-.052.065-.107.156-.019.223A.625.625,0,0,0,21.7,44.326Z"/></svg>